<svg version="1.1" id="Layer_1" xmlns="http://www.w3.org/2000/svg" xmlns:xlink="http://www.w3.org/1999/xlink" x="0" y="0" viewBox="0 0 171.4 87.5" xml:space="preserve"><style>.st1{fill:#fff}</style><defs><path id="SVGID_1_" d="M-.2-.2h185v103.6H-.2z"/></defs><clipPath id="SVGID_2_"><use xlink:href="#SVGID_1_" overflow="visible"/></clipPath><g clip-path="url(#SVGID_2_)"><path class="st1" d="M93.5 30.9v-.2z"/><defs><path id="SVGID_3_" d="M-.2-.2h185v90.4H-.2z"/></defs><clipPath id="SVGID_4_"><use xlink:href="#SVGID_3_" overflow="visible"/></clipPath><g clip-path="url(#SVGID_4_)"><path class="st1" d="M1.8 50.5v-1.4c.1-.6 2.2-.2 2.5 0l.3.3c0 .1.1.2.1.4s0 .4-.1.6c0 .2-.1.3-.2.4-.2.1-.4 0-.7 0h-.5c-.2 0-1.2.2-1.3 0-.1-.2-.1-.2-.1-.3m19.6-11.3c.1-.9-.3-1.7-.9-2.3l.2-.2.2-.1c.2-.1.3-.2.5-.3l.1-.1.4-.2h.1c.3.2.5.4.6.8v.1c.5 1.3.1 2.7-.8 3.7-.1.2-.3.3-.5.4h-.1c-.1-.1-.2-.3-.3-.4v-.2l.1-.1s0-.1.1-.1l.1-.1c0-.1.1-.2.1-.3v-.5l.1-.1zM10.1 54.6c0-.1-.1-.1-.1-.2v-.1c-.2-.3-.5-.5-.8-.7-.1-.1-.2-.1-.3-.1-.1 0-.1.1-.2.2-.3.5-.5.9-.7 1.4-.5 1.3-1 2.5-1.6 3.8-.3.8-.7 1.6-1.2 2.3-.1.2-.3 0-.5-.1-.4-.7-.2-1.2 0-2-.1 0-.1-.1-.1-.2v-2.2c0-.4.1-.8.1-1.2l.2-2.2c0-.3-.3-.7-.5-.9-.1-.1-.3-.2-.4-.3-.5-.2-2.2 0-2.4.7-.1.7-.1 1.5 0 2.2v4.5c-.1 1 .1 2 .5 3 .5.9 1.5 2 2.4 1.8h.2-.3l-.2-.1-.1-.1c-.3-.1-.5-.3-.6-.6-.2-.2-.3-.5-.4-.8 0 .2-.1 0-.1-.1-.1-.4-.2-.9-.2-1.3 0 .3.1.5.2.8.1.5.3 1.1.6 1.5.2.3.4.5.8.7.2.1.4.1.6.1.9-.2 1.7-.7 2.2-1.4.8-1 1.5-2 2.1-3.1.7-1.5.9-3.1 1.5-4.7-.1-.2-.7-.5-.7-.6m-7.5-.8v-.2.4h-.1v-.2m.3 7.3c-.1-.1-.1-.2-.2-.2 0-.2-.1-.4 0-.6v-1.1 1.3c0 .2 0 .3.1.5m-.2-3.2l-.1-.1v-.2s.1 0 .1.1v.2zm0-.6c-.1 0-.1-.1-.1-.1h.1v.1m-.1-2.7c.1.1.1.1.1.2l-.1-.2c.1.1.1.1 0 0m.1.6v-.2s.1 0 .1.1c-.1 0-.1 0-.1.1l.1.1h-.1v-.1m.1 3.9v-.9s.1.1.1.2v.6l-.1.1v.3-.3c-.1.1-.1.1 0 0m-.3-2.5v-.9 1.2-.3c-.1.1-.1.1 0 0m-.2 1.3v-1 1.9c0-.1-.1-.1-.1-.2 0-.3 0-.5.1-.7m.9 5.9s-.1 0-.2-.1-.1-.2-.2-.3c-.1-.1-.1-.3-.1-.4l-.1-.4c-.1-.2-.1-.4-.2-.6-.2-1-.3-2-.2-3 0 .9.1 1.7.3 2.6 0 .3.1.5.1.7.3.5.4 1 .6 1.5m-.2-7.1h-.1v-.4s.1 0 .1.1v.3z"/><path class="st1" d="M4.7 64.4h.4c.1 0 .1 0 .2-.1h-.4l-.3.1h.1zm3.5-21.6h-.1c-.1 0-.1 0-.1-.1v.2l.4-.2c-.1.1-.1.1-.2.1"/><path class="st1" d="M19.4 52.9c-.4-.8-1.3-1.2-2.2-1-.3.2-.5.5-.6.9l-2 9.2v.2c-.3 1.6-.2 1-1.3 2.1-.1.1-.4.2-.5 0l-.1-.1c-2-5.5-.8-10.8-.7-16.8 0-.4.1-.8.1-1.1.3-2 .6-2.3.8-4.3 1.8-.5 3.5-1.1 5.2-1.8.1 0 .2-.1.3-.2.1-.1.1-.3 0-.4v-.1c-.2-.5-1.3-1.3-1.5-1.8-1.1.6-2.3 1-3.6 1.2.7-3.6 1.1-6.8 1.8-10.4.1-.7 0-1.3-.2-2-.1-.5-1.5-.5-2-.5s-.7.8-.8 1.3c-.3 1.5-.7 3-1 4.5l-.9 4.5c-.1.8-.3 1.5-.4 2.3-.1.2-.2 1.3-.4 1.3-1.4.5-2.7 1.2-3.9 1.9-1.1.5-2.2 1.2-3.3 1.8-.8.5-1.4 1.2-1.8 2-.3.8.2 1.9 1 1.8 2-1.8 4.3-3.3 6.8-4.3 0-.1-.1-.1-.2-.1h-.4s-.1-.1-.1-.2v.2c-.1 0-.1-.1-.2-.1 0 .1 0 .2-.1.2l-.1.1c0-.1-.1-.2-.1-.3v.2l-.1-.1h-.1c-.1 0-.2-.1-.2-.1.1.1.2.1.2.1.1 0 .1-.1.2-.3 0 .1.1.1.1.2v.2s.1 0 .1-.1v-.1h.1l.1-.1h.1c.1 0 .1 0 .2.1 0-.2.2-.3.3-.3h.1c.1 0 .2 0 .3.2v-.2.1-.2s.1.1.1 0h.2s.1 0 .2.1v-.2H9v.1l.1.1v.2c-.1.1-.1.2-.1.2-.2 0-.3.1-.5.3l.5-.2c-.9 6.2-1.5 12.9-.2 19.3v.3c.1 2 .9 4 2.3 5.5.3.2.7.4 1.2.4.6.1 1.3.1 1.9 0 1.2-.9 2.2-2.1 2.7-3.5.4-1 .7-1.9 1-2.9l1.4-8c0-.4.1-.8.1-1.3M6.1 42.8c.1.1 0 .1 0 0zm-.4-.2c0 .1 0 0 0 0m-1.3 1.6l-.1-.2.1.2zm.7-.3h-.2v-.1h-.1v.2l-.2-.2h.1c0-.1.1-.1.1-.1v-.1.4m.4-.2c-.1 0-.1 0 0 0-.1-.1-.1-.2-.1-.2h.2s0 .2-.1.2m.4-.1l-.1-.2s.1 0 .1.1v.1zm.5-.2H6v.2l-.2-.1-.1-.1h-.1v-.2h.1c.1 0 .1.1.1.1l.1-.1v-.1s0-.1.1-.1v.1l.1.1c0 .1 0 .1-.1.1m.6-.3v.3c-.2 0-.5-.1-.6-.3 0 .1.1.1.1.1h.1V43h.1s.1 0 .3.1m-.1-.8c0-.1 0-.1 0 0m.6.2v-.2.2zm.3-.5v-.2.2zm.5-.2v-.2s0-.1-.1-.1v.1c.1.1.1.1.1.2m.1 0v-.2h.1c0 .1 0 .1-.1.2zm.1-.2c-.1-.1-.1-.1 0 0 0-.1 0-.1 0 0m.4.1c0-.1 0-.1 0 0l.1-.1v-.1.1l.1.1c0 .1.1.1.1.1v.1m7.1-2.2v.2-.2zm-.3.1zm-1.4.7v.1c-.1 0-.1 0 0-.1m-1.1-.5H13h.1zm-1 .8h.2v-.1.1l-.1.1c-.1 0-.1 0-.2-.1h.1zm.1.3s0 .1 0 0c-.1.1-.1 0 0 0zm-.3-.2zm-.2 0h.1c0 .1 0 .1-.1 0 0 .1 0 .1 0 0zm.1.2l.1.1c.1-.1.1-.1.2-.1h.4c.1 0 .2-.1.2-.2v.1l.1-.2s0-.1.1-.1c0 .1.1.1.1.1s.1 0 .1.1c0-.1 0-.2.1-.2.1.1.1.1.2.1s.1 0 .1-.1l.1-.1h.1c.1 0 .1 0 .2.1 0-.1 0-.1.1-.2h.1v-.1.2c.1-.1.1-.1.2-.1l.2-.1c.2 0 .3-.1.4-.2.1.1.1.2.1.2v-.2c0 .1.1.1.1.1h.2c0-.1.1-.2.1-.2h.1l.1-.1v.1l.3-.1.3-.1c.2-.1.4 0 .6.1v.1-.1c0 .3-.3.5-.5.5l-.2.1h-.2l-.3.3h-.3l-.1.1-.1.1c-.1 0-.2 0-.2-.1h-.1v.2h-.6c-.2 0-.4.1-.5.2H13c-.2 0-.4.1-.6.1 0 0-.1 0-.1.1v.1c0-.1-.1-.1-.1-.1H12s-.1 0-.1-.1c-.1 0-.1.1-.2.1h-.2v-.2.5h-.2c0-.2.1-.5.1-.7.1 0 .2-.1.3-.1m-2.2.1zm-.2.7h.1v-.1c0-.1 0-.1.1-.1l-.1-.1h.2l-.1.6c-.2.1-.3.1-.5.2 0-.2 0-.4.1-.6m.7.4V42h.1v.1h-.1zM10 49s-.1 0 0 0c-.1-.1-.1-.1-.1-.2v-.3s.1 0 .1.1v.4m0 3.2c-.1-.1-.1-.1 0 0m-.1-.8c0 .2-.1.4-.2.5v-.6c0-.3 0-.5.1-.6l.1.3c-.1.2-.1.3 0 .4m-.3 4.4v.1-.1c-.1-.4-.1-.8-.1-1.2v-1.4c.1.4.2.8.2 1.3v1.3h-.1zm-.1.9l.1-.1c.1 0 .1 0 .2.1s0 .1-.1.2v.1l-.2-.3zM9 47.5c.1 0 .1 0 .1.1l-.1-.1zm.2 3.4l.1-.1-.1.1-.1.1s0-.1.1-.1m0-4.5c0-.2 0-.3.1-.5v-.6s.1.1.1.2v.4c-.1.2-.2.4-.2.5m.1-1.4c0-.1.1-.1 0 0 .1-.1.1-.1.1 0h-.1zm.4 4h-.3v-.1l.1-.1v-.2c.1 0 .1 0 .1.1v.1l.1.2zm0 3.8v-.6c.1 0 .1.1.1.2 0 .2 0 .4-.1.4 0 .1 0 0 0 0m.1-.6c-.1 0 0 0 0 0 .1 0 .1 0 0 0m-.1-11l.1.1c-.1 0-.1 0-.1-.1zm-.6 1.6l.5-.1v.4h-.2v.1l.1.1s0 .1.1.1v.1h-.4s-.1 0-.1-.1v-.1c0-.1 0-.1-.1-.1.1-.1.1-.2.1-.4m-.3 15.4s-.1 0 0 0l-.1-.2c.1 0 .1 0 .1.1v.1m.1-6.6s-.1 0-.1-.1v-.2h.1v.3zm.3 8c-.1 0-.1-.1-.1-.1h.1v.1m-.4-15l.2-.1v-.2.1s-.1 0-.1-.1V44h.5v.3h-.1v.1h.1c0 .1-.1.2-.1.2H9m.1 7.2h.1v.1l-.1-.1c0 .1 0 .1 0 0m.3 8.4c-.1 0-.1-.1-.1-.2s0-.1.1-.2v.4zm-.1-5.4c-.1 0-.2-.1-.2-.1h.1l.1.1zm0 2.2h-.1.1zm0 2v-.5s.1.1.1.2 0 .2-.1.3l.1.2v.3c0-.1-.1-.1-.1-.2V59m0 1.7l.1.3c-.1 0-.1-.1-.2-.1.1-.1.1-.2.1-.2m.2.9l-.1-.1v-.2h.1v.3m-.1-8h-.1.1c0-.1.1-.1 0 0zm0-4.6v-.5l.1.1c0 .1 0 .1-.1.2s0 .2 0 .2m.2 8.5c.1.1.1.2.2.3v1.1c0-.1 0-.1-.1-.2 0-.1-.1-.3-.1-.4v-.8m.3 1.6v-.2c.1 0 .1 0 .1.1l-.1.1zm-.1 1.2v-.4c-.1 0-.1 0-.1-.1v.1c.1 0 .1.1.1.1v.5c-.1 0-.1 0-.1-.1v-.1m0 .9v-.5c.1 0 .1.1.2.3 0 .2 0 .3-.1.3l-.1-.1zm.2 1.6v-.4c0-.1-.1-.3-.1-.4v-.6h.2s0 .1.1.1v1.1l-.2.2c.1 0 .1 0 0 0m.3.8c0-.1 0-.1 0 0zm.2 1.3s0 .1-.1.1h-.1v-.3s0-.1-.1-.1h.1c.1.1.1.1.2.3 0-.1 0-.1 0 0m-.3-18.2c-.1 0-.1-.1-.1-.1v-.1m0 0v.1-.1zm.2 1.7l.1-.1h.1v.1h-.2m.2-2.1s.1 0 0 0h.2c-.1 0-.1.1-.2 0 .1.1 0 .1 0 0zm-.1-.5h.1v.2c-.1 0-.1 0-.1-.1h-.1m.2-.3l-.1-.2c.2.1.2.1.1.2.1 0 .1 0 0 0m-.2-4.9v-.2c.1 0 .1 0 .1.1l-.1.1zm.6 26.7V67c0-.1 0-.1-.1-.2.1.1.2.2.2.3l-.1.1.2.3c-.1 0-.2-.2-.2-.3m-.2-22.9h-.1v-.1c0-.1.1-.1.1.1 0-.1 0-.1 0 0m.1-2.3h-.1s0-.1-.1-.1c0-.1 0-.1.1-.1h.1c.1 0 .1.1 0 .2m.2-.4l-.1-.1v-.1c.1 0 .1 0 .1.1v.1m-.1-5.5l-.1.2-.1.2v.3c0 .1 0 .1.1.2-.1.1-.2.3-.2.5v.4l-.1.1-.1.1v.1h-.1c0 .4 0 .8-.1 1.1 0 .2-.1.4-.1.5 0 .1-.1.3-.1.4v.1h-.4v.1-.3h.3v-.4l.1-.4v-.6h.1c.1 0 .1 0 .1-.1l-.1-.1v-.1h.3l-.1-.1V38l.1-.2c0-.1.1-.1.1-.2l-.1-.1H10c.1 0 .2-.1.2-.2v-.1s0-.1.1-.1c0 0-.1-.1-.1-.2v.1-.1s0-.1-.1-.1h.2c.1 0 .2-.1.2-.3v-.2l.1-.2c0-.1.1-.2.1-.3h-.2c.1-.1.2-.2.3-.4.1.1.1.1.1.2 0 .2 0 .4-.1.5m.3 3.4v.2s-.1 0-.1-.1c0 .1.1 0 .1-.1zm-.2-4.3h-.2v-.1h.1V35s0-.1-.1-.1v-.6h.2v.6h-.1c.1.2.1.3.1.3.1.1 0 .1 0 0m.1-.9zm.1 4.4c0-.1 0-.1.1-.2l.1-.1v-.2.3l-.2.2m6 19.9c0 .1-.1 0-.1 0h.1m-.4 1.7h-.1.1m-.6 2.3c0 .1 0 .1 0 0zm0 .4H16h.1zm-.2-.4c.1 0 .1 0 0 0 .1.1.1 0 0 0m.1 1.3h-.2.1m-.1-.7c0-.1 0-.1 0 0m0 .6h-.1.1zm-.3 0zm-.2.5c.1 0 .1.1 0 0zm0 2v.1c-.1.1-.1.1-.1.2v.1l-.1.1c-.1.2-.2.3-.4.4l.1.1-.4.2-.4.1-.1-.1.1-.1.2-.1c.2-.1.3-.2.4-.4.1-.1.3-.2.4-.4l.1-.2.2-.2h.1m1.9-3.8c-.1 0-.1 0-.1-.1 0 0 .1 0 .1.1zm.5-2.5c0 .1-.1.1-.1.2s0 .1.1.2h-.3c-.4 1.9-1 3.8-1.8 5.6h.1v.1h-.1l-.1.1h-.1v.1h-.1c0-.1 0-.1.1-.2 0-.2.1-.3.1-.5l.1-.2.1-.2.2-.3c.1-.1.1-.2.2-.3 0-.1.1-.2 0-.3v-.2l.1-.2.1-.2c.1-.1.2-.3.2-.5s.1-.3.1-.5l.1-.2.1-.2v-.5c0-.2.1-.3.1-.5l.1-.1.1-.1s.1-.1.1-.2v-.6c.1-.2.2-.3.3-.5v.1c.2.1.2.2.2.1m.3-2.5c0 .1 0 .1-.1.1v.2l-.1.4c-.1.1-.1.3-.1.4v.1c-.1 0-.1.2-.2.5-.1.2-.1.3-.1.5-.1-.1-.2-.1-.3-.1h-.1.1-.2l.1-.2V59c0-.2.1-.3.1-.5.1-.4.3-.6.4-.6-.1-.1-.2-.2-.2-.3v-.2c0-.1.1-.3.2-.3v.3h.1l.4-.1zm-5.8 12.3l.1.1-.1-.1m18.3-19.8c-.1 0 0 .2 0 .1v-.1c0 .1 0 0 0 0"/><path class="st1" d="M33.5 49.3c.1-.3.1-.7 0-1-.1-.4-.5-.6-.9-.5-.1.1-.2.1-.3.2-.6.6-1.1 1.2-1.6 1.8v.1c0 .1-.1.2-.1.2-1.1 1.4-2.3 2.7-3.5 3.9-.3-.3-.6-.6-.8-.9-.1-.1-.3-.1-.4-.2-.4-.4-.7-.9-.9-1.3-.4-.5-.5-1.1-.4-1.8.2-.5.4-1 .9-1.4.6-.6.9-1.3 1.7-1.4-.2 1 .2 2 1.1 2.4.1.1.3.1.4 0 .2-.1.3-.3.3-.5l.2-1c.1-.5.2-1.1.1-1.6-.1-.6-.6-1.1-1.1-1.4-1.8-.8-3.9 1-4.9 2.3-.8 1-1.2 2.4-1 3.7.4 1.9 2.3 3.2 3.5 4.7-1.3 1.4-2.6 2.9-2.8 4.8-.1.5 0 1.1.3 1.5.5 1 1.6 1.5 2.7 1.3 1.1-.5 2-1.3 2.6-2.3.7-1.5.8-3.2.1-4.7 0-.1-.1-.2-.1-.3 0-.1.1-.2.1-.2 1.6-1.6 3.4-3.3 4.8-5 .3-.4-.1-.9 0-1.4m-7.2 5.3l.3.5c.1.2.2.3.4.5-.3-.2-.5-.5-.7-.7l-.3-.6c-.1-.1-.2-.3-.3-.4.2.2.4.5.6.7m-2-2.4l.2.2.1.1s-.1 0-.1-.1l-.2-.2zm-.3-.3l.1.1v.2l-.1-.1v-.2m-.4-.8s.1 0 .1.1l.1.1s0 .1.1.1v.1l-.2-.2-.1-.2zm-.5-2.6l.1-.2c.1.1.1.1-.1.2l.1.2h-.1c.1-.1.1-.2 0-.2m-.1.7v.2h-.1s0-.1.1-.2c-.1.1-.1.1 0 0m-.1.5c0-.1 0-.1 0 0 .1 0 .1 0 0 0v.3-.3zm.6 2l-.1-.1v-.1c-.1-.1-.2-.2-.2-.3l-.1-.2-.1-.1v-.6c.1.1.1.1.1.2l.1.3.1.3.1.3v.1l.1.2c0-.1 0-.1 0 0m.6 1c-.1-.2-.2-.3-.3-.5l-.2-.2-.1-.1c.1.1.2.2.3.4l.3.4c.2.2.4.5.7.8-.2-.2-.5-.4-.7-.8m.7.3l-.2-.2c.2.1.3.2.4.3l.2.3.1.1.1.1.1.1v.1l-.1-.1v-.1c-.2-.1-.3-.3-.4-.4l-.2-.2zm.9 1.5l-.6-.7.5.5.5.5c.3.4.6.7.9 1.2l.6 1.2.1.2c.1.3.1.7.1 1v-.1c0-.1-.1-.3-.1-.5v-.2l-.1-.2c0-.1-.1-.3-.1-.4-.3-.6-.7-1.2-1.1-1.8l-.7-.7zm1.1 5.5c-.2.3-.5.6-.9.8-.1.1-.2.1-.4.1h-.3v-.3c0-.2 0-.4.1-.5.1-.2.1-.4.2-.6l.1-.1.1-.1.1-.2.1-.4c.2-.2.4-.4.6-.7l.3-.3.3-.3c.1.9.1 1.8-.3 2.6m.6 1.2c0-.2.1-.4.2-.6l.1-.2.1-.2c0-.2.1-.3.1-.4.1-.7.1-1.5-.1-2.2v-.1c-.2-.6-.4-1.2-.7-1.7.3.4.5.9.7 1.4.1.1.1.3.1.4.1.3.1.7.2 1.1 0 .8-.3 1.7-.7 2.5M68.3 6c-1.1-1.6-3.2.2-3.3 1.3-1.3 12.2-1.9 24.5-1.9 36.8 0 3.1 0 5.8-2 8.2-2.2-2.1-3.8-4.8-4.5-7.7-2.1-7.3-2-14.8-3.5-22.2-.5-1.3-1.2-2.4-2.2-3.3-.5-.6-1.3-.9-2-.7-.9.3-2.6 1.6-2.7 2.5-1 6.5-1.6 13.1-1.8 19.8-.3 5.3.2 10.6 1.3 15.8.1.2.1.4.2.7.2 1.2.8 2.2 1.6 3.1.4.3 1 .6 1.5.6v-.4c0-.1-.1-.1-.1-.2.1 0 .2.1.2.2l.1.2c1 .2 2.1.1 3-.4-.7-.5-1.1-1.2-1.3-2-1.2-3.9-1.9-7.9-2-11.9-.4-6.9-.1-13.9.8-20.8 1.1 7 1.7 16.3 4.2 22.9.9 2.9 2.4 5.5 4.5 7.6.6.6 1.3 1 2.2 1.1 1.1 0 2.1-.3 3.1-.8 1.8-1.7 2.8-3 2.9-5.4.2-12.7 1.2-29 2.3-41.6.1-1.1 0-2.3-.6-3.4M48 28.4c.1 0 .1 0 0 0m-.1 1v-.6h.2v.5H48l.1.1s-.1.1-.2 0c-.1 0-.1 0 0 0m-1.3 7.4v-.4c0-.1 0-.3.1-.4v.1c0 .1 0 .1.1.1h.1v-.1c0-.1 0-.1.1-.1h-.1v-.4h.1l.1-.1s.1-.1.2-.1c-.1-.1-.2-.2-.2-.3v-.6H47h.1v-.4l.1-.4v-.5c0-.1 0-.1-.1-.2h.1c.1 0 .1 0 .1-.1l-.2.1v-.1h.3c-.1 0-.1-.1-.1-.2v-.2l.1-.2c0-.1 0-.2.1-.2s0 0-.1-.1h-.2c.1 0 .2-.1.2-.2v-.2l-.1-.1v-.3h.1c.1 0 .2-.1.2-.3v-.3c0-.1.1-.2.2-.3h-.2c.1-.1.2-.2.2-.4.1.1.1.2.2.3v.4l-.1.2h-.1v.2c0 .1 0 .2.1.3-.1.1-.2.3-.2.5v.3c0 .1 0 .1.1.2-.1 0-.1.1-.1.1v1.3c0 .2 0 .3-.1.5s-.1.3-.1.4v.1c0 .4 0 .8-.1 1.2l-.1.4-.1.4v.8H47v.1l.1.1v.3h-.2v-.2c0-.1 0-.1-.1-.1h-.1c0-.5 0-.7-.1-.9m1.3-1.9l-.1-.1v-.1c.1 0 .1.1.1.2 0-.1 0-.1 0 0m0 4.7h.1v.2c-.1 0-.1 0-.1-.1v-.1c0 .1 0 .1 0 0m-.1-1.6c-.1 0-.1 0 0 0 .1-.1 0-.1 0 0m.1 2.1c.1 0 .1 0 0 0 .1.1 0 .1 0 0zm.1-.8s-.1 0 0 0l-.1-.2V39c.1 0 .1 0 .1.1.1.2.1.2 0 .2m-.4 11.6l-.1-.1v-.2h.1v.3zm-.6-11v.4c0 .1 0 .2-.1.3 0 .1-.1.1-.1.2 0-.1 0-.3.1-.5v-.6c0 .1 0 .1.1.2m-.1-.6c0-.1 0-.1 0 0 .2-.1.1-.1.1 0h-.1zm-.1 2.6s-.1 0-.1-.1.1 0 .1.1m.1 3.1c.1 0 .1 0 0 0 .1.1 0 .2 0 .2V45zm.2 2.5s-.1 0 0 0zm-.1-4.7v-.3l.1.1c0 .1 0 .2-.1.2m.3 11v.2c-.1 0-.1-.1-.1-.2v-.1l.1.1m-.2-10.4V43l.1.1-.1.3h.1c0 .1 0 .1-.1 0zm.5-.2s-.1 0-.1-.1v-.4s.1 0 .1.1v.4zm0-2.4c-.1 0-.1-.1-.1-.1v-.1l.1.1v.1zm-.1-5.8v-.6s.1 0 .1.1v.3l-.1.2zm0 .6h-.2v-.2c.1.1.2.1.2.2zm-.1.8v.2h-.1l.1-.2zm0 10.4v-.5c.1 0 .1.1.1.2.1.1 0 .2-.1.3m.1-.6zm.2 6.7v-.1c.1 0 .1 0 .1.1m-.2-6.9v-1.2c0 .1.1.2.1.3v.3c0 .2-.1.4-.2.6m.2.1c-.1-.1 0 0 0 0 0 .1 0 .1 0 0zm-1 5.9s-.1 0 0 0l-.1-.2c.1 0 .1 0 .1.1.1.1.1.1 0 .1m0-6.6v.2s-.1 0-.1-.1l.1-.1m0-6.7c-.1 0-.1 0 0 0h-.2v-.1l.2.1v-.3.2s-.1 0-.1-.1v-.3h.4v.1s-.1.2-.2.2v.1h.1c0 .1-.1.1-.1.2 0-.1-.1-.1-.1-.1m.1 3.8c0-.1 0-.1 0 0zm0 3.3h.2v.1l-.2-.1zm.2 7.6c.1-.1.1-.1 0 0m0-4.8c.1 0 .1 0 .1.1v.1c-.1 0-.1 0-.1-.2zm.1 2.4l-.1.1c-.1.1 0 0 0 0m0 1.3c.1.1.1.2.1.3v.6c0-.1-.1-.2-.1-.3v-.6m.1 2.3v-.2s.1 0 0 .2l.1.2c0-.1-.1-.1-.1-.2m.2.8s-.1 0 0 0l-.1-.2v-.1h.1v.3zm0-4.3s0-.1 0 0m0 .9v-.7c.1.1.2.3.2.4v.9c-.1-.1-.1-.3-.1-.4l-.1-.2zm.2 2v-.3h-.1v-.1.1c0-.1.1-.2.2-.2s.2.1.2.2v.5c-.1 0-.1-.1-.1-.1v-.1h-.2zm.1.9v-.6c.1 0 .2.1.2.3s0 .3-.1.3c-.1.1-.1.1-.1 0m.3 1.7v-.2c0-.1-.1-.2-.1-.4v-.9.1c0 .1.1.1.1.2v1.2m.1.7v-.1.1m-.2-15.2c.1 0 .1 0 0 0m.4 16.5l-.1-.2v-.1l.1.1v.2s0 .1 0 0m-.3-22.5h-.1V36h.1v.2m.1-.4c0-.1 0 0 .1.1l-.1-.1zm.4-3.1c0 .1-.1.2-.1.2v-.5s.1.1.1.2v.1m15.8 8.1v-.5c.1 0 .1.1.1.2v.6s-.1 0-.1-.1v-.2M63 53.5l.1-.2.1-.2.2-.4c.2-.5.3-1 .3-1.5V51c.1-.1.1-.2.2-.4v-.3c0-.1 0-.1.1-.2 0-.5.1-1 .1-1.7v-1.8l.2-3.5c.1-2.2.3-4.6.5-7 .3-3.7.7-8.3 1.2-13.9.8-8.4-.1.1-.1.1v-.2l.1.1v-.3l.1-.3c.1-.2.1-.5.1-.7v-.5c0-.1 0-.3.1-.4v.5c0 .2-.1.3-.1.4 0 .7 0 1.5-.1 2.5l-.1 1.2.1 1.2-.1.8-.1.8c-.1.6-.2 1.1-.2 1.5-.1.5-.1 1-.1 1.5v1.4l-.1 1.3-.2 1.3c-.1 1-.2 1.9-.2 2.5 0 .8-.1 1.7-.2 2.7l-.1 1.3c0 .5-.1 1-.1 1.3l-.1 1.2v1.3c0 1-.1 1.9-.1 2.4l-.1.5-.1.4c-.1.4-.1.7-.1.8-.1.9-.2 1.9-.3 2.8-.1.8-.5 1.6-1 2.3-.1-.1 0-.3.1-.4m-4.7-.2l.3.5c.1.1.2.3.3.5.3.5.8.9 1.3 1.2.2.1.3.1.5.1h.3c.1 0 .2 0 .2-.1.2-.1.4-.2.6-.4l.3-.3.3-.3v.3c-.1.2-.2.3-.4.5-.2.1-.3.3-.5.4l-.2.1h-.2c-.1.1-.2.1-.4.1s-.3 0-.5-.1c-.4-.2-.7-.4-1-.8-.3-.4-.6-.8-.8-1.2l-.3-.8-.2-.4-.1-.3c.2.4.4.7.5 1m-1.4-2.9l.3.8c.1.3.3.5.4.7-.3-.4-.6-.8-.8-1.2l-.1-.4-.2-.5-.2-.4c0-.1-.1-.3-.1-.4.4.5.6.9.7 1.4m-1-2.8c.1.2.1.3.1.5v.4l.1.1.1.1v.2l-.2-.3v-.2c-.2-.3-.3-.5-.4-.8l-.1-.4c0-.1-.1-.3-.1-.4.2.3.3.5.5.8m-.7-1.8s.1.1.1.2v.2c0 .1 0 .1.1.2l-.1.1s-.1 0-.1-.2v-.5zm-.2-.7l.1.2v.2l-.1-.1v-.3m-.3-1.4s.1.1.1.2v.2c0 .1 0 .1.1.2l-.1.2c-.1-.1-.1-.3-.1-.5v-.3zM54 42c-.1 0-.1-.1-.1-.2v-.2s0-.1.1-.1c0 .1 0 .1.1.2l-.1.3m.9 4v-.4c0-.1 0-.2-.1-.2 0 0-.1-.1-.1-.2l-.1-.1-.1-.1v-.5c0-.2 0-.4-.1-.6v.4c-.1-.2-.2-.3-.2-.5l.3-.3c.1.4.2.8.3 1.3s.2.7.3 1.2c0 0 0 .1-.1.1l-.1-.1zm1.4 4c0-.1 0-.2-.1-.2h-.1v.5L56 50l-.1-.4c-.1-.3-.2-.5-.3-.8.1 0 .1 0 .2.1l.1.1.1.1c0-.1 0-.2-.1-.2l-.1-.3c-.1-.1-.1-.2-.1-.3v-.1l-.1-.1v.2c0 .1.1.3.2.4 0 0-.1 0-.1-.1l-.1-.2-.1-.1c.1-.2.1-.4.1-.6v-.2c0-.3-.2-.6-.3-.8.1-.1.1-.2.1-.3l.4 1.1.4 1.2c.4.9.7 1.7.9 2.2 0 0-.1 0-.2-.1l-.2-.2-.1-.1c-.3-.2-.3-.3-.3-.5m4.1 6.6c-.1 0-.2 0-.3-.1h.1l.2.1m2.4-1.3c-.2.2-.4.5-.7.7-.2.2-.5.3-.8.4h-.2c-.2 0-.5 0-.7-.1-.6-.2-1.1-.6-1.5-1.2-.3-.4-.5-.8-.6-1.2-.5-.4-1-.9-1.2-1.5-.1-.2-.2-.3-.2-.5l-.2-.5-.3-.9.2.2.1.2c.1.1.2.3.3.4v-.1l-.1-.1v-.3l.2.3.2.3c.1.1.1.3.1.5v.1l.6.9.6 1c.3.7.8 1.2 1.4 1.5 0 .1.1.1.2.2s.2.2.3.2c.2.1.5.2.8.2h.1c.4-.1.7-.3.9-.5.1-.1.2-.2.3-.4l.1-.2.1-.1v.1c0 .1.1.1.1.1.1 0 .3-.1.4-.2h-.4l.1-.1c0-.1.1-.1.1-.1h.2c-.2.3-.3.5-.5.7m1.3-2c0-.1 0-.2.1-.2l.1-.1.1-.1c-.1.2-.1.3-.3.4m.5-1.3v-.1l.1-.1-.1.2zm.2-1.3v-.2l.1-.1-.1.3m.8-12.4v-.5c0-.1.1-.1.1-.1v.3c0 .1 0 .1-.1.3.1 0 .1 0 0 0 .1.1 0 0 0 0m.3-2.6v-.3.3m.4-3.9v-.4.4m.2-3v.2c0 .1 0 .1-.1.1s0-.2 0-.6l.1.1v.2m0-3.4v-.2.2m1.6-13.5s-.1-.1-.1-.3v.1s0 .1.1.2zm-1.4 19.3l.1.3-.1.1v-.2.3h.2v.3l-.1.1c-.1 1.5-.2 2.9-.3 4.3v.1s0 .1.1.1v.1l-.1-.1v-.1c0 .4 0 .9-.1 1.3v.5c0 .1 0 .1-.1.1v-.1c0 .9-.1 1.9-.2 2.8l-.2 3.2c.2 3.2-.3 6.3-1.7 9.2.8-2.7 1.2-5.4 1.2-8.2.6-12 1.8-24.1 3.6-36.1-.9 7.3-1.7 14.7-2.3 22m1.7-22.1s0 .1 0 0l-.1-.1v-.3.1s0 .1.1.1v.2"/><path class="st1" d="M49.2 60.9c0-.1-.1-.1-.1-.2H49c.1.1.1.2.2.2M65.4 38v.5-.5m.1-1.3v-.1.1zm.3-4.4V32l-.1.1.1.2zm.1-.6v-.3l-.1.1.1.2zm27.7-6.9l-.1-.4c-.1-.4-.2-.8-.4-1.2-1.4-4.1-3.6-7.8-6.5-11l-.6-.6c-.2-.2-.4-.5-.6-.6-.4-.4-.9-.9-1.4-1.2-.6-.4-1.1-.7-1.8-1-.7-.3-1.4-.4-2.1-.4-.3 0-.6 0-.9.1h.2s0 .1-.1.1h-.4l-.3.1c-.2.1-.3.1-.5.2-.6.3-1.2.6-1.7 1.1-.9.8-1.6 1.8-2.2 2.9h-.1v.4c0 .2-.1.5-.2.7-.3.5-.6 1-.7 1.6l-.3.4-.1.4-.1.4-.3.2c-.3 2.5-.1 5 .7 7.4l.1.2c.2.4.3.8.6 1.2l-.2.6-.1.4.1.1v.1c-.1.4-.3 1-.4 1.7-.1.6-.2 1.2-.3 1.9-.4 2-.5 4.1-.4 6.1 0 0 0 .1-.1.1v-.6c0-.1 0-.2-.1-.3v-3.1c.1-.7.1-1.2.2-1.6.1-.5.2-.9.3-1.4-.1.3-.2.5-.2.9l-.2.8-.2.5c0 .2 0 .4-.1.8v.9l-.1.4c0 .2-.1.4-.1.5 0 .2.1.4.1.7-.1.2-.2.3-.3.5v.3l-.1.2v1.1l.1 1.1v.5l.1.5.1 1.1.1.5.1.5.1.5.1.5.3 1.1c.1.4.2.8.3 1.1s.2.7.3 1c.3.8.5 1.5.9 2.2.5 1.1 1.2 2 2.1 2.8 1.1 1.3 2.6 2.1 4.3 2.2.5.1 1 .1 1.6 0-1.1 0-2.2-.4-3.2-.9l-.5-.1-.2-.2-.3-.2-.9-.9c-.6-.6-1.1-1.3-1.5-2-.4-.7-.8-1.4-1.1-2.1l-.2-.5-.2-.6-.2-.5-.2-.5-.4-1.1-.2-.5-.1-.6c-.1-.4-.2-.7-.3-1.1l-.1-1.2c0-.2-.1-.5-.1-.8v-.4c0-.2-.1-.3-.1-.5v-.5l-.1-.3c-.1-.2-.1-.3 0-.5.1.4.1.8.1 1.2.3 2.2.9 4.3 1.5 6.4l.2.5.2.5.2.5.2.5.2.4c.2.5.4 1 .7 1.5.4.6.8 1.2 1.3 1.7s1 1 1.5 1.4c1 .8 2.2 1.4 3.4 1.6.6.1 1.3.1 1.9 0l.9-.3c.5-.1.9-.3 1.4-.5l.3-.2.3-.2.5-.4c.3-.2.6-.5.9-.8 1.7-1.4 3.1-3.1 4.1-5 .7-1.3 1.3-2.7 1.7-4.1v-.2l.2-.6.2-.6.2-.6v-.3c0-.2 0-.3.1-.4.1-1.2.2-2.4.2-3.6v-3.8c.2.7.2 1.4.2 2.1v.1-2.9c0-.6-.1-1.1-.1-1.5V29c-.5-1.5-.8-2.8-1.1-4.2m-19.4 19v-.2c.1 0 .1.1 0 .2M88.8 16l.3.5.3.5c.2.3.4.7.7 1l-.6-.6c-.1-.1-.2-.3-.3-.5l-.3-.5c-.6-.9-1.1-1.6-1.5-2 .5.5 1 1 1.4 1.6m-.9-.3c-.1-.1-.1-.2-.2-.3h-.1v.2l.1.1.1.1v.2l-.3-.4-.3-.4c-.2-.3-.4-.6-.7-.8.1 0 .2.1.5.3 0-.1-.1-.2-.2-.3l-.2-.3c-.1-.1-.3-.3-.4-.5H86l-.1-.1c.1.2.3.4.5.6v.1s-.1 0-.2-.1l-.2-.2-.2-.1c0-.1 0-.3-.1-.4-.1-.2-.2-.4-.4-.6-.2-.3-.5-.5-.9-.7 0-.1 0-.1-.1-.2 0-.1-.1-.1-.1-.2 1.6 1.4 3.1 3 4.3 4.8 0 0-.1 0-.3-.1l-.1-.1-.1-.1c0-.1-.1-.1-.2-.1.1-.1.1-.3.1-.4m-1.8-3c.3.3.6.6.8 1l.3.2c0 .1.1.1.1.2v.1L87 14v-.1l-.1-.1v-.1c-.3-.3-.6-.5-.9-.9-.2-.3-.5-.6-.8-.8.4.2.6.5.9.7M84.2 11s.1 0 .3.2l.2.2.2.1v.1s-.1 0-.2-.1l-.1-.1-.1-.1-.3-.3zm-.5-.5l.1.1v.2l-.2-.1-.1-.1v-.2l.2.1M81.8 9s.1 0 .3.1l.1.1.2.1.3.1.1.2c-.2-.1-.4-.2-.6-.4H82l-.2-.2c0 .1 0 .1 0 0m-.4.4v-.2c1 .6 1.9 1.4 2.7 2.2v.1h-.2v.1c-.1-.2-.3-.4-.5-.6-.1-.1-.2-.1-.3-.2l-.1-.1-.2-.1c-.1-.1-.2-.1-.2-.2l-.1-.1-.1-.1c-.2-.2-.4-.4-.7-.5l.1.1h.2c.1.1.2.2.2.3-.3-.1-.5-.3-.7-.4-.1-.2-.1-.3-.1-.3m-6 11.9c.1.1 0 .5-.3 1.1l-.2.4-.1.4-.3.6-.1-.1c.3-1 .7-1.7 1-2.4m-.1 1.5v.2c0 .1 0 .1-.1.2 0 0 0 .1-.1.1V23l.1-.1.1-.1zm-.2.6c0 .2-.1.3-.1.5l-.2.5-.1-.1.2-.4.2-.5zm1.3 24.7c-.1-.1-.2-.3-.4-.6h.1l.2.2c.1.1.1.2.1.3s-.1.1 0 .1m1.7 2.8c-.1 0-.2-.1-.2-.1l-.1-.2.2.1.2.2.1.2-.2-.2m.2-.3l-.2-.1s0-.1-.1-.1l-.1-.1.1.1c.2.1.3.1.3.2.1 0 .2.1.2.2h-.1c0-.1-.1-.1-.1-.2m.4.8l-.2-.1-.1-.2.2.1.1.2zm4.6.8h-.5.5m1.6-.1l-.1.1c-.1.1-.2.1-.3.2l.1-.1.1-.1c.1 0 .1-.1.1-.1s0-.1.1 0zm1.1-.7h-.2c.1-.1.2-.2.4-.2.1-.1.3-.2.3-.3v.1c-.1.1-.1.2-.2.2-.1.1-.2.1-.3.2m.8-.3h-.2l-.2.2h-.1l.2-.2c.1-.1.2-.2.3-.2l.1-.1h.1c0 .1-.1.2-.2.3M91 37.9c-.3 1.8-.2 2.8-1 4.5l-.3.6c-.9 1.6-2.2 3.1-3.7 4.3-1 .9-2.3 1.6-3.6 1.8-1.8.2-3.7-.6-4.9-1.9-1.3-1.3-1.5-2.6-2-4.4-1.4-4.9-.6-8.7.9-13.6.8.9.9.7 2.1 1.1 1.1.5 2.4.3 3.3-.6-.5-1-1.3-1.8-2.3-2.2-.8-.4-1.7-.5-2.2-1.2-.2-.2-.2-.5-.2-.7 0-.2.1-.3.1-.5.3-.6.7-1.2 1-1.9.2-.5.3-1 .3-1.5-.1-.4-.3-.8-.6-1.2-.2-.2-.5 0-.7.1-.2.2-.4.4-.5.6-.4.7-.6.9-.9 1.6-.1-.1-.1-.3-.1-.5-.4-1.4-.4-3-.1-4.4.2-1.4.7-2.8 1.5-4 .3-.4.6-.7 1-1 .2-.3.5-.3.8-.4.4-.2.8-.3 1.3-.3s.9.1 1.3.2c.9.4 1.7 1 2.3 1.7 6.5 6.2 8.9 15.1 7.2 23.8m2.5-.9s0 .1-.1.1v-.2l.1-.1v.2m.2-1.8c0 .1 0 .1-.1.1l.1-.1c0-.2 0-.2-.1-.3v.1l.1.2zm0-1.7l-.1.1v.1c-.1-.2-.1-.4 0-.6.1.2.1.3.1.4m-1.5-8.3l-.1-.2s.1 0 .1.2l.1.1.1.2c-.1 0-.1-.1-.2-.3m1.6 4.8c-.1 0-.2.2-.2.6v.1h.1v-.1s0-.1.1-.1v.4c-.2-2-.6-3.9-1.1-5.8-.1-.5-.3-.9-.4-1.5-.1-.4-.3-.8-.5-1.3-.3-1-.6-1.6-.6-1.8-.3-.3-.5-.6-.7-.9l-.2-.3-.3-.1-.4-.6c-.6-1-1-1.8-1.3-2.3.2.1.3.3.4.5l.2.2.2.3-.1-.2-.1-.2v-.3c.2.2.4.5.5.7.1.1.2.3.3.5 0 .1 0 .1.1.2.3.4.6.8.8 1.2l.2.4.2.4c.1.3.2.5.3.8l.4.8.5 1.1.2.3.3.6c0 .2.1.3.1.5.1.3.1.5.2.7.1.3.2.6.3 1l.1.5.1.5.1 1.1.1.5.1.5c.1.3.1.5.1.8v.5c-.1-.1-.1-.2-.1-.2m.2-1.8l.1.8c.1.5.1 1 .1 1.5 0 0-.1 0-.1-.1 0-.4-.1-.8-.1-1.2l-.1-.6-.1-.6c0-.2 0-.3-.1-.5l.1-.2v-.2c-.5-1.8-1.2-3.5-1.9-5.3-.5-1.2-1-2.3-1.6-3.5.9 1.4 1.6 2.8 2.2 4.3.2.6.4 1.1.6 1.7l.3.8.2.8c.1.4.2.9.4 1.6l.1.4-.1.3z"/><path class="st1" d="M94.3 38c0 .3-.1.7-.1 1v.3c0 .1 0 .3-.1.4v.1c-.2.7-.4 1.3-.6 2-.6 2.1-1.4 4.2-2.6 6-.7 1-1.4 1.9-2.3 2.8-.5.4-.9.8-1.4 1.2-.6.4-1.2.8-1.8 1.1-.6.2-1.2.4-1.8.5-.4.1-.9.2-1.3.2.7 0 1.3 0 2-.2.5-.1.9-.3 1.3-.4.4-.2.8-.4 1.1-.6.7-.5 1.4-1 2-1.6 1.2-1.1 2.2-2.4 3-3.8.4-.7.8-1.4 1.1-2.2l.2-.8.2-.6.2-.6.2-.6c.4-1.5.7-3.1.8-4.7 0-.1.1-.2.1-.3v-.4c0-.2 0-.5.1-.7-.1-.4-.1-.8-.1-1.2v.7c.1 1.1-.1 1.9-.2 2.4m-21.4-9.4l.1-.2v-.2c.1-.4.2-.8.4-1.2l.1-.2-.1-.2-.1.3c-.1.2-.2.6-.3 1l-.3 1c0 .2 0 .5.1.7.1-.2.1-.4.2-.5-.2-.1-.2-.3-.1-.5"/><path class="st1" d="M90.1 49.2l-.1.1-.2.2c-.2.2-.2.3-.2.4.1-.1.1-.2.2-.2l.1-.1.1-.2c.1-.2.2-.3.1-.2zM78.9 8.3h-.3l.1.1h.1l.4-.1c-.2-.1-.3-.1-.3 0m50.7-4.7c0-1.1-.9-1.9-2-1.8-1.9.1-3.9.2-5.8.5-6.1.8-12.1 2.2-17.9 4.3-2.9 1-5.8 2.1-8.6 3.4l-2.1.9-.4.1c-.4.1-.7.3-1 .6-.9 1 0 3.4 1.2 3.1 1.4-.3 2.7-.7 4.1-1.2 4.4-2.7 6.5-2.2 11.3-3.9-.1.3-.1.6-.2.9l-.2.9-.3 1.8-.6 3.6c-.4 2.4-.7 4.7-1 7.1s-.6 4.7-.7 7-.3 4.7-.3 7.1 0 5 .2 7.5c0 .2 0 .4.1.7.1.3.1.5.2.8.2.4.4.9.7 1.2.4.4.8.8 1.3 1.1.5.3 2.4-1.1 2.7-1.5-4.9-11.5 3.6-39.7 3.6-39.7 4.7-1.4 9.5-2.1 14.4-2.1.3 0 .8-.9 1-1.1.3-.2.4-.5.4-.9-.1-.2-.1-.3-.1-.4M108 21.5v-.4.4c0 .1-.1.2-.1.2v-.2m.1 7.2v.2l-.1-.1.1-.1s.1 0 0 0m-.1.4h.1v.2s-.1 0-.1-.1v-.1c0 .1-.8 0-.8 0 .3.1.6.1.8 0m-.7-1.7c-.1 0 0 0 0 0m-.2-3.6v.3-.7l.1.1v.2l-.1.1zm.3.1c0 .2 0 .1 0 0v-.1c.1 0 .1.1 0 .1zm.1 1.1h.1v.3h-.1V25m.3-.3s.1 0 .1.1v.2l-.1-.1v-.2m-.1-7.6l-.1.1c0-.1.1-.1.1-.1m-.2.9v-.6h.2v.7l-.2-.1.2.2c0 .1-.1.1-.1.1h-.2v-.1m-1.5 8.1c.1-.3.1-.6.2-.9.1.1.2 0 .3-.1-.2 0-.2-.4-.2-.6l.3-1.5c.2-.8.3-1.5.3-2.3 0-.3 0-.7.1-1 .1-.3.2-.9.4-1 .1.5.1.9-.1 1.4 0 .2-.1.5-.1.7l-.3 2.1c-.2 1.4-.4 2.8-.6 4.1-.2-.1-.3-.5-.3-.9m.9 4v-.1.1l.1.1c-.1.1-.1 0-.1-.1m.1 2.3v.4c-.1 0-.1-.1-.1-.1v-.1l.1-.2c-.1 0-.1 0 0 0-.1-.1-.1 0 0 0m-.3-6.9l.1.2h-.1v-.2zm.1-.8v-.2h.1v.2h-.1zm-.2 8.4h-.3v-.1c0-.1.1-.1.1-.2l.1.1v.3c0-.1.1-.1.1-.1-.1.1-.1.1-.1.2m.1 2.2c0 .2-.1.4-.2.6l.1-.3v-.3c0-.2 0-.4.1-.6v.6m-.5-5.7c-.1.2-.1.4-.2.5 0-.2.1-.4.1-.6v-.6.5m0 3v-.1c0-.1 0-.1.1-.2l.1.1c0 .1 0 .1-.2.2m.1-3.8s0-.1 0 0c.1-.1.1 0 .2 0h-.2zm-.4-.8v.1c-.1-.1-.2-.2-.1-.4.1-.1.2-.2.4-.1v-.3h.4v.1s-.1.2-.2.2v.1h.1c.1 0-.1.2-.2.2s-.1 0-.1-.1v.1h-.2V28h.2v-.3l-.1.1m.3 7.1c-.1 0-.1-.1 0-.1v-.1h.1c-.1 0-.1.1-.1.2m0 .7l-.1.1v-.1h.1zm-.2-3.5zm.1-.7l-.1-.2c.1.1.2.1.1.2zm-.3 3.7v-.2.2l.1.1s-.1.1-.1-.1c0 .1 0 .1 0 0m-.3 7.1l-.1-.3c.1 0 .1 0 .1.1.1.1.1.2 0 .2m.1-2.7c-.1 0-.1 0 0 0-.1 0-.1 0 0 0m.1 4.2l-.1-.1h.1v.1m.2 1.2l.1.2v.1c-.1 0-.1-.1-.1-.2-.1 0-.1 0 0-.1m0 .9v.1s.1 0 0-.1v-.1h.2l-.2.1zm0-1.4c-.1 0-.1-.1-.1-.2V44v.3l.1.1zm0-1.3v.6-1s.1.1.1.2c0 0 0 .1-.1.2m.2-4.3c-.1 0-.1 0-.1-.1v-.1s.1 0 .1.1v.1zm0-1.3l.2-.1s0 .1-.2.1m.3 3.8s.1 0 0 0c0 0 .1 0 0 0m.2 2c0 .1 0 .1 0 0v-.1s.1 0 .1.1v.1m0-1.1v.7c0-.1 0-.1-.1-.2 0-.1 0-.3.1-.5l-.1-.3v-.4c.1.1.1.2.1.3.1.1.1.3 0 .4m0-1.4v.2-.3h.1v.1m.1-2.6V40v-.1c-.1-.5-.1-.9 0-1.4v-1.6c.1.6.1 1 0 1.4m.1-1.6v-.6c.1 0 .1.1.1.2 0 .2 0 .3-.1.4m.7 11.4V48v.1m.4-12c0 .1 0 .1 0 0l-.9.1V36c.3.1.6.1.9.1m.4-4.2h-.1v-.1h.1m0-2l-.1-.1v-.1h.1v.1s0 .1-.1.1m0-2c-.1 0-.1 0 0 0zM114.6 6h.2c0 .1 0 .1-.1.1h-.2c0 .1 0 0 .1-.1m-9.1 2.8l1-.4c.5-.2.9-.3 1.4-.4.2 0 .4-.1.6-.1v.2l-.5.1h-.3l-.2.1c-.8.4-1.6.7-2.4.8l-.5.1.9-.4zm-1.9.6l.4-.1c.1 0 .2-.1.3-.2-.1.2-.3.4-.6.4l-.2.1-.2.1c-.1 0-.2.1-.4.1.2-.2.5-.3.7-.4m-1.3.5l.2-.1h.3l.1-.1h.1l-.1.1c-.1.1-.2.2-.4.2h-.2c-.1 0-.1 0-.2.1 0-.1.1-.2.3-.3m-.9.5v.1h-.1l.1-.1m-1.4.9s-.1.1 0 0l-.1.1v-.1h.1v-.1c-.1 0-.1 0 0 .1m.6-.7s0-.1 0 0l.2-.1.1-.1.1.1c0 .1-.1.1-.2.1h-.2m1.2.2c-.1-.1-.2-.1-.3 0-.1.1-.1.2-.2.2h-.2s-.2 0-.2.1h.2c0 .1-.2.2-.2.1-.5-.3.7-.6.8-.6h.1c-.1 0-.1.1 0 .2-.1 0-.1 0 0 0m-.1-.4h-.2v-.1l.2.1c-.1-.1 0-.1 0-.1v.1c0-.1 0 0 0 0m1.6-.2c0 .1.2 0 .3.1-.2.1-.4.2-.6.2 0-.1 0-.2.1-.2l-.4.1-.1.1c.1 0 .2 0 .2-.1 0 .1-.1.2-.2.2-.2-.2-.5-.2-.7-.1l-.1.1-.1-.1c.6-.4 1.3-.7 2-.8 0 .1 0 .2-.1.3 0 0 0 .1-.1.1l-.1-.1s-.1.1-.1.2m3.6-.6c0-.1 0-.1 0 0l.1-.1h.1c-.1 0-.1.1-.2.1m1.5-.9v.1c-.9.3-1.8.6-2.8.7-.1 0-.1 0-.2.1l-.1.1c-.4.4-.9.6-1.5.5l.4-.2c-.1 0-.2 0-.2-.1.2-.1.4-.2.7-.3l1.1-.5c.4-.1.8-.2 1.2-.4l1.4-.4h.1l.1.1v.1m1.6-1.1c.4 0 .8-.1 1.2-.2 3.6-1 7.3-1.7 11-2.2.1 0 .2 0 .2-.1l1 .1h-.2l-4 .6-1.4.2c-1.5.2-3.1.6-4.6 1-.5.2-1 .3-1.5.4-.4 0-.7.1-1.1.2-.4.1-.9.4-1.4.4.2-.2.4-.3.6-.3m0 .4h-.2.2m.7.5l-.1-.1.1.1m5.4-1.3h-.2v-.1l.1-.1.1.2c0-.1 0-.1 0 0 0-.1 0-.1 0 0m1-.2c-.1-.1-.1-.1 0 0 0-.1 0 0 0 0m1.7-.4h-.1s0 .1-.1.1c.1 0 .1 0 .2-.1m1.2-.1h-.2s.1-.1.2 0m1.5-.5zm6-.5l-.1.1s0-.1.1-.1zm-8.7.8l-.1.2-.1-.1v-.1h-.2l.1.1-.1-.1c-.6.1-1.2.2-1.8.4v.2-.1l-.6.1s0 .1-.1.1h-.1l.1-.1h.1l-1.4.3-1.3.4c-.8 0-1.5.2-2.2.6H110c6-2 12.3-3 18.7-2.8-3.3 0-6.5.3-9.8.9m9.9-.9c-.1 0-.1 0 0 0 0-.1 0-.1 0 0m.3-.5h-.2c-.2 0-.4 0-.5-.1h-1.2c-.3 0-.7 0-1 .1H124c0 .1-.1.1-.1.2h.1l.1-.1h.5l.6-.1c.3-.1.7-.1 1 0 .1-.1.1-.2.2-.2.5.1 1 .1 1.4.2h.7c.2-.1.4-.1.6 0 0 0 0 .1-.1.1m-22.2 46.9c0-.2-.1-.3-.1-.3 0 .1.1.1.1.2v.3c0 .1 0 .2.1.2v-.2l-.1-.2zm.4-2.5c-.1 0 0 0 0 0s0 .1-.1.1v.1s0 .1.1.1v-.3c0 .1 0 0 0 0s0-.1 0 0m11.6-43.1zm21.7 26.3c-.2-.6-.4-1.2-.8-1.7-.3-.5-.8-.9-1.4-1.2-.8-.3-1.7-.4-2.5-.3-.3-.8-.7-1.5-1.2-2.1-1.1-1.3-1.8 2.1-2.1 2.8-.5 1.6-.9 3.2-1.1 4.8-.3 1.6-.2 3.3.4 4.8.6 1.6 2.1 2.6 3.8 2.6 1-.1 1.9-.6 2.6-1.3 2.2-2.2 3.1-5.4 2.3-8.4m-.8 1.1c.1.2.1.4.1.6v.1c-.1-.3-.2-.5-.1-.7l-.1-.2c0-.1 0-.1-.1-.2.1.1.2.3.2.4m-.2.5c.2.7.2 1.4 0 2.1-.1.7-.4 1.3-.9 1.7 0-.1.1-.2.2-.4l.1-.2.1-.1c.1-.1.1-.2.2-.3.3-.9.4-1.9.3-2.8m-.2-1.4l.1.2.1.1s-.1 0-.1-.1l-.1-.2zm-.2-.2l.1.1v.1h-.1v-.2zm-.4-.6s.1 0 0 0l.2.2.1.1v.1l-.1-.1-.1-.1-.1-.1v-.1m.3.8l.1.2.1.2.1.2.1.2c0 .1.1.3.1.4l-.2-.2-.1-.2-.1-.2-.1-.2v-.4c-.1 0-.2-.1-.3-.2.1 0 .2.1.3.2m-.7-.8l.1.2c.2.2.3.2.3.3-.2-.2-.4-.3-.4-.5-.2-.1-.2-.1-.3-.2.1 0 .2.1.3.2m-.7-.5h.3-.3c0-.1 0-.1 0 0m-.2-.2l-.1.1v-.1h.1m-.7-.3h.3v.1h-.2l-.1-.1c-.1 0-.1 0 0 0m-.7 8.5h-.1c-.4.1-.8 0-1.1-.3-.3-.3-.5-.8-.3-1.3-.1.1-.2-.1-.2-.2-.1-.9 0-1.8.1-2.6.1-.4.2-.9.3-1.3.3-1.4 2.4-2.1 3.1-.6.1.2.1.4.2.6.2.8.2 1.6.1 2.5-.2 1-.6 2-1.3 2.7-.3.1-.5.3-.8.5m1.3.1s.1-.2.3-.3l.2-.1.1-.1.1-.1.1-.1c.7-.8 1.3-1.7 1.6-2.7-.2 1.4-1.1 2.6-2.4 3.4m2.7-4.7v.2c0 .2-.1.5-.1.9v-1.7s.1.1.1.2v.4zm8.4-13.4zm5.8-14.7c-.1-.2-.3-.3-.5-.4-.5-.1-1-.1-1.4 0-.3.2-.3.7-.4 1.1-.8 2.5-1.3 4.8-2.2 7.1l-.1.2c-1.7 3-2 4.3-4.5 6.6.1-1.8.3-2 .4-3.8l.1-.6c.4-4.9.9-9.7 2.5-14.4.3-.6.3-1.2.2-1.8-.2-.5-1.6-.8-2.1-.5s-.6 1.2-.7 1.6c-.5 1.7-.9 3.4-1.3 5.1-.7 3.3-1.2 6.7-1.4 10.1-.1 1.4-.4 2.8-.5 4.2l-.1 1.4-.1 1.6c-.2 5.2.3 10.4 1.3 15.5.1.6.3 1.2.6 1.7.4.5 1.1.6 1.6.2.5-.4 1-1.2.9-1.8-.9-3.2-1.5-6.5-1.8-9.9.5.8 1 1.8 1.6 2.7.1.1.1.1.1.2.6 1.1 1.7 2 3 2.2l.3.1c1.5.1 3.3-1.6 4.1-2.9-1.9.9-4.2.6-5.9-.8-1.5-1.3-2-2.8-2.5-4.7-.1-.5-.2-1-.1-1.4 0-.3.2-.7.4-.9.7-.7 1.3-1.4 1.9-2.1l.1-.1.1-.2h-.1.1l.1.1.1-.1v-.1h.1l.1-.1h-.1l.1-.1.1-.1c0-.1.1-.1.2-.1h.1c2.7-3.6 4.6-7.7 5.8-12 .4-.8.3-1.8-.1-2.6M147 33.3zm.3.4h-.2.2zm.5.5zm.5.4c0-.1.1-.1 0 0h.1v.1l-.1-.1m.7.4h.1-.1zm1.5 0c.1 0 .1.1 0 0 0 .1 0 .1 0 0m-.9-.4h.1l.1.1h.1-.1l-.2-.1h-.2m-.1-.1c.1.1.1.1.1.2h-.2c-.1-.1 0-.1.1-.2m-.3-.1s.1 0 0 0m-.1.4c-.1 0-.1-.1 0 0m-.2-.1c0-.1 0-.1 0 0m0-.6h-.1.1zm-.3-.2l.1.2h-.2l-.1-.1-.1-.1h.3m-.3-.1zm-.1-.2c0 .1.1 0 0 0m-.4-.3l.2.1c-.2 0-.3-.1-.4-.2l-.2-.2-.2-.2c.1 0 .3.1.4.2l.2.3zm-.6-.6c.1 0 .2 0 .2.1v.1h-.2v-.2zm-.2-.3l.1.1v.3-.1l-.1-.1c-.1-.1-.1-.2 0-.2zm-1.2-1.1zm.7.2l-.1.1.1-.1zm0 .3h-.1v-.1l.1.1m-.2.1l-.2.1v-.1h.2m-.3-1zm-.1-.1s-.1 0 0 0h-.2.2zm-.7-18.6v-.1.1m.2-1.3v-.2h.1l-.1.2m.1-1.7s0 .1 0 0m1.8-7.4c0-.1 0-.1 0 0 .1-.1.1-.1 0 0 .1 0 .1.1 0 0m-.3 1.3V3h.1l.1.1h-.2m-1.6 3.3c.1-.3.1-.4.1-.6l.1-.3v-.2c0-.4.2-.7.4-1-.1 0-.1-.1-.1-.2V4c.3-.5.5-.9.6-1.4l.3-.7c.1-.3.2-.5.3-.6l.1.1c0 .1 0 .2-.1.3 0 .2-.1.4-.3.5 0 .2-.1.4-.1.6l-.2.6c-.2.4-.3.8-.3 1.2-.2.3-.3.7-.4 1l-.1.5-.1.6h-.2v-.3zm-2.1 9.8v-.1c.1 0 .1 0 .1.1v.1c0 .1-.1.1-.1-.1zm-.5 11.8v1.2c0-.1-.1-.2-.1-.2v-1.3c.1.1.2.2.1.3m-.1-1.8c0 .1.1.3.1.5v.4l-.1.4v-1.3zm.1 3.6l.1-.2s0-.1-.1-.1c0-.1 0-.1.1-.1v.1m-.1 0c0 .1.1.1.1.2v.6c-.1-.1-.1-.2-.1-.2v-.6zm0 1.1c0 .1 0 .1 0 0l.1.2v.1h-.1v-.3m.2 1.2v.2h-.1l.1-.2-.1-.1.1-.1v.2m0-.6c0 .1 0 .1 0 0-.1.1-.1 0 0 0l-.1-.1h.1v.1m-.1-6.6h-.2c0-.5.1-1 .2-1.5.1 0 .1.1.1.1v.8c0 .1-.1.2-.1.3v.3zm.2 3.8v-.1.1zm.2 4.6v-.2h.1v.2m.2-1l-.4.1v-1.2h.3c-.1 0-.1.1-.1.2l.1.1.1.1v.1l-.1.1c-.1.1-.1.1-.1.2v.1l.1-.1c.1.1.1.1.1.3 0-.1 0 0 0 0m-.3-1.8v.2c0 .1 0 .1.1.2-.1 0-.1.1-.2.1-.1-.4-.1-.8-.1-1.2v-1.2h.1l.1.4v.1h.1l.1.5c-.1 0-.1-.1-.2-.2v.2c0 .1 0 .2-.1.2v.1s.1-.1.1-.2c0 0 0-.1-.1-.1.1 0 .1 0 .1.1v.2c-.2 0-.3.2-.3.4m.4-1.8zm.1-.4c-.1 0-.1 0 0 0v.1-.1zm-.1-.2zm.2-4l-.1.8h-.3v-1.3c.1.1.1.1.2.1s.2-.1.2-.2h-.2v-.1s0-.1.1-.1h.1v.8m.1-7.3l-.1.6v1.2c0 .4 0 .8-.1 1.1v.2l-.1.2c-.1.1-.1.2-.1.4v1.5c-.1.5-.2.9-.4 1.3 0 0 0-.1-.1-.1 0-.2 0-.4.1-.6 0-.2.1-.3.1-.5v-.2c0-.1 0-.2-.1-.2.1 0 .1-.1.1-.2v-.1s0-.1.1-.1c.3-4.3.9-8.6 1.8-12.9h-.1s.1 0 .1.1v-.3l.1-.1c0-.1.1-.2.1-.3h.1v-.4c0-.1 0-.1.1-.2 0 .1 0 .3-.1.4 0 .4 0 .8-.1 1.1l-.1.6-.1.6-.1.4-.1.4c-.1.3-.1.5-.2.7 0 .2-.1.5-.1.7v.7l-.1.6-.2.6c-.1.4-.2.7-.2 1.1 0 .4 0 .8-.1 1.3l-.1.4zm1 12.2c.1 0 .1 0 .1.1s0 .1-.1.1v-.2m-.4 1h.1v.1c0 .1-.1 0-.1-.1v.1-.1zm-.3-8.6c.1 0 .1 0 0 0m.5 8.9h-.1.1m.1.3c-.1 0 0 0 0 0m-.2-14.8V15h.1s0 .1.1.1v.2h-.2zm.1-.9v-.1h.1s0 .1-.1.1zm-.7 7.7c.1 0 0 .1 0 .1m.1-.6zm.2 9.3v-.5h.1l.1-.1c.1-.1 0 0-.1 0h-.1v-.5c.1.1.2.2.2.4l.1.2c0 .1.1.2.1.2l-.2.1h.2l-.1.1h-.3v.1m.5.2l-.1.1-.1.1h-.1l.1-.1h-.2.1l.1-.1.2-.1h.1l-.1.1h.1c.1-.1.1-.1-.1 0m.4-2s-.1 0 0 0c-.1-.1-.1-.1 0 0zm-.3-13.9V15l.1-.1v.2s0 .1.1.1h-.2m.3-3c0 .1 0 .1 0 0l-.1.1v-.1h.1zm0 1.6s.1 0 0 0l.1.1c0 .1-.1.1-.1-.1zm.1 16l.1-.1v.1h-.1m.1-.2zm-.3-17.4l-.1-.2.1-.1.1.2-.1.1zm.4 18.3c.2-.2.1-.1 0 0m2-7.9l-.1-.1h.1v.1zm4.7-8.8zm-1.8 3.5zm-.2.3s0-.1 0 0v-.1m0 1.4c-.2.3-.2.5-.2.6-.1 0-.2.1-.2.2l-.1.1-.1.1c-.1.2-.2.4-.4.4v.2l-.1.1h-.1l-.1-.1h-.2c0-.2 0-.3.2-.5.1-.1.2-.2.4-.2h.2c0-.3.1-.6.3-.8l.2-.2.2-.2.3-.4h.1s.1 0 .1.1v.1l-.1-.1c0 .1.1.3.3.3-.1.2-.3.3-.4.5m.3-2.1zm1.5-2.7h-.2.1v.2m.1.1s0-.1 0 0l.1-.1-.1.1zm.1-.3h.2-.2zm.6-2c.1 0 0 .1 0 .1v-.1zm0 1zm0-.1l-.1-.1h.1l.1.1h-.1zm.5-1.5zm.9-3.3h-.1.1zm.2-.6h-.1.1M144.9 31c0 .1 0 0 0 0z"/><path class="st1" d="M145 31.6l.1-.1v-.1c0-.1-.1-.1-.1-.1l.1.2-.1.1zm.2.3zm.2.2zm.3-.1l.1.1V32h-.1m.6.9zm.7 1.1zm.8.5s-.1 0-.1.1c0-.1 0-.1.1-.1 0-.1-.1 0 0 0m.1-12.5zm.1-.1s.1 0 0 0v.1m.2-.4s.1 0 .1-.1l.1-.1v-.1l-.2.3m.3-.3zm3.1 13.5c-.1 0-.1 0-.2.1h.1l.1-.1c.1.1.1 0 .2 0h-.2zm.7-19.3z"/></g></g></svg>